<svg width="18" height="18" viewBox="0 0 18 18" fill="none" xmlns="http://www.w3.org/2000/svg">
<path d="M8.99992 5.66998C8.83284 5.66998 8.67259 5.60361 8.55444 5.48546C8.4363 5.36731 8.36992 5.20707 8.36992 5.03998V1.79998C8.36992 1.71725 8.38622 1.63533 8.41788 1.55889C8.44954 1.48246 8.49594 1.41301 8.55444 1.35451C8.61295 1.296 8.6824 1.2496 8.75883 1.21794C8.83527 1.18628 8.91719 1.16998 8.99992 1.16998C9.08265 1.16998 9.16458 1.18628 9.24101 1.21794C9.31745 1.2496 9.3869 1.296 9.4454 1.35451C9.5039 1.41301 9.55031 1.48246 9.58197 1.55889C9.61363 1.63533 9.62992 1.71725 9.62992 1.79998V5.03998C9.62992 5.20707 9.56355 5.36731 9.4454 5.48546C9.32725 5.60361 9.16701 5.66998 8.99992 5.66998ZM8.99992 16.83C8.91719 16.83 8.83527 16.8137 8.75883 16.782C8.6824 16.7504 8.61295 16.704 8.55444 16.6455C8.49594 16.587 8.44954 16.5175 8.41788 16.4411C8.38622 16.3646 8.36992 16.2827 8.36992 16.2V12.96C8.36992 12.8773 8.38622 12.7953 8.41788 12.7189C8.44954 12.6425 8.49594 12.573 8.55444 12.5145C8.61295 12.456 8.6824 12.4096 8.75883 12.3779C8.83527 12.3463 8.91719 12.33 8.99992 12.33C9.08265 12.33 9.16458 12.3463 9.24101 12.3779C9.31745 12.4096 9.3869 12.456 9.4454 12.5145C9.5039 12.573 9.55031 12.6425 9.58197 12.7189C9.61363 12.7953 9.62992 12.8773 9.62992 12.96V16.2C9.62992 16.3671 9.56355 16.5273 9.4454 16.6455C9.32725 16.7636 9.16701 16.83 8.99992 16.83ZM11.3546 6.64531C11.2961 6.58682 11.2497 6.51737 11.218 6.44094C11.1864 6.36451 11.1701 6.28259 11.1701 6.19986C11.1701 6.11713 11.1864 6.03521 11.218 5.95877C11.2497 5.88234 11.2961 5.8129 11.3546 5.7544L13.6456 3.46336C13.7041 3.40486 13.7736 3.35845 13.85 3.32679C13.9264 3.29512 14.0084 3.27883 14.0911 3.27883C14.1738 3.27883 14.2557 3.29512 14.3322 3.32679C14.4086 3.35845 14.478 3.40486 14.5365 3.46336C14.595 3.52186 14.6415 3.5913 14.6731 3.66773C14.7048 3.74417 14.7211 3.82609 14.7211 3.90882C14.7211 3.99155 14.7048 4.07347 14.6731 4.1499C14.6415 4.22633 14.595 4.29578 14.5365 4.35427L12.2455 6.64531C12.187 6.70382 12.1176 6.75023 12.0411 6.78189C11.9647 6.81355 11.8828 6.82985 11.8 6.82985C11.7173 6.82985 11.6354 6.81355 11.559 6.78189C11.4825 6.75023 11.4131 6.70382 11.3546 6.64531ZM3.4633 14.5366C3.4048 14.4781 3.35839 14.4087 3.32672 14.3322C3.29506 14.2558 3.27876 14.1739 3.27876 14.0911C3.27876 14.0084 3.29506 13.9265 3.32672 13.8501C3.35839 13.7736 3.4048 13.7042 3.4633 13.6457L5.75434 11.3547C5.81284 11.2961 5.88228 11.2497 5.95871 11.2181C6.03515 11.1864 6.11707 11.1701 6.1998 11.1701C6.28253 11.1701 6.36445 11.1864 6.44088 11.2181C6.51731 11.2497 6.58676 11.2961 6.64525 11.3547C6.70376 11.4131 6.75017 11.4826 6.78183 11.559C6.81349 11.6355 6.82979 11.7174 6.82979 11.8001C6.82979 11.8828 6.81349 11.9648 6.78183 12.0412C6.75017 12.1176 6.70376 12.1871 6.64525 12.2456L4.35421 14.5366C4.29572 14.5951 4.22627 14.6415 4.14984 14.6732C4.07341 14.7048 3.99149 14.7211 3.90876 14.7211C3.82603 14.7211 3.74411 14.7048 3.66767 14.6732C3.59124 14.6415 3.5218 14.5951 3.4633 14.5366ZM12.3299 8.99998C12.3299 8.8329 12.3963 8.67265 12.5144 8.55451C12.6326 8.43636 12.7928 8.36998 12.9599 8.36998H16.1999C16.2827 8.36998 16.3646 8.38628 16.441 8.41794C16.5174 8.4496 16.5869 8.496 16.6454 8.55451C16.7039 8.61301 16.7503 8.68246 16.782 8.75889C16.8136 8.83533 16.8299 8.91725 16.8299 8.99998C16.8299 9.08272 16.8136 9.16464 16.782 9.24107C16.7503 9.31751 16.7039 9.38696 16.6454 9.44546C16.5869 9.50396 16.5174 9.55037 16.441 9.58203C16.3646 9.61369 16.2827 9.62998 16.1999 9.62998H12.9599C12.7928 9.62998 12.6326 9.56361 12.5144 9.44546C12.3963 9.32731 12.3299 9.16707 12.3299 8.99998ZM1.16992 8.99998C1.16992 8.8329 1.2363 8.67265 1.35444 8.55451C1.47259 8.43636 1.63284 8.36998 1.79992 8.36998H5.03992C5.12265 8.36998 5.20458 8.38628 5.28101 8.41794C5.35745 8.4496 5.4269 8.496 5.4854 8.55451C5.5439 8.61301 5.59031 8.68246 5.62197 8.75889C5.65363 8.83533 5.66992 8.91725 5.66992 8.99998C5.66992 9.08272 5.65363 9.16464 5.62197 9.24107C5.59031 9.31751 5.5439 9.38696 5.4854 9.44546C5.4269 9.50396 5.35745 9.55037 5.28101 9.58203C5.20458 9.61369 5.12265 9.62998 5.03992 9.62998H1.79992C1.63284 9.62998 1.47259 9.56361 1.35444 9.44546C1.2363 9.32731 1.16992 9.16707 1.16992 8.99998ZM11.3546 11.3547C11.4131 11.2961 11.4825 11.2497 11.559 11.2181C11.6354 11.1864 11.7173 11.1701 11.8 11.1701C11.8828 11.1701 11.9647 11.1864 12.0411 11.2181C12.1176 11.2497 12.187 11.2961 12.2455 11.3547L14.5365 13.6457C14.595 13.7042 14.6415 13.7736 14.6731 13.8501C14.7048 13.9265 14.7211 14.0084 14.7211 14.0911C14.7211 14.1739 14.7048 14.2558 14.6731 14.3322C14.6415 14.4087 14.595 14.4781 14.5365 14.5366C14.478 14.5951 14.4086 14.6415 14.3322 14.6732C14.2557 14.7048 14.1738 14.7211 14.0911 14.7211C14.0084 14.7211 13.9264 14.7048 13.85 14.6732C13.7736 14.6415 13.7041 14.5951 13.6456 14.5366L11.3546 12.2456C11.2961 12.1871 11.2497 12.1176 11.218 12.0412C11.1864 11.9648 11.1701 11.8828 11.1701 11.8001C11.1701 11.7174 11.1864 11.6355 11.218 11.559C11.2497 11.4826 11.2961 11.4131 11.3546 11.3547ZM3.4633 3.46336C3.5218 3.40486 3.59124 3.35845 3.66767 3.32679C3.74411 3.29512 3.82603 3.27883 3.90876 3.27883C3.99149 3.27883 4.07341 3.29512 4.14984 3.32679C4.22627 3.35845 4.29572 3.40486 4.35421 3.46336L6.64525 5.7544C6.70376 5.8129 6.75017 5.88234 6.78183 5.95877C6.81349 6.03521 6.82979 6.11713 6.82979 6.19986C6.82979 6.28259 6.81349 6.36451 6.78183 6.44094C6.75017 6.51737 6.70376 6.58682 6.64525 6.64531C6.58676 6.70382 6.51731 6.75023 6.44088 6.78189C6.36445 6.81355 6.28253 6.82985 6.1998 6.82985C6.11707 6.82985 6.03515 6.81355 5.95871 6.78189C5.88228 6.75023 5.81284 6.70382 5.75434 6.64531L3.4633 4.35427C3.4048 4.29578 3.35839 4.22633 3.32672 4.1499C3.29506 4.07347 3.27876 3.99155 3.27876 3.90882C3.27876 3.82609 3.29506 3.74417 3.32672 3.66773C3.35839 3.5913 3.4048 3.52186 3.4633 3.46336Z" fill="url(#paint0_angular_424_14874)"/>
<defs>
<radialGradient id="paint0_angular_424_14874" cx="0" cy="0" r="1" gradientUnits="userSpaceOnUse" gradientTransform="translate(8.99992 8.99998) rotate(-121.607) scale(7.63206 7.77573)">
<stop offset="0.0506391" stop-color="white"/>
<stop offset="0.98751" stop-color="white" stop-opacity="0.0579671"/>
</radialGradient>
</defs>
</svg>
